<svg xmlns="http://www.w3.org/2000/svg" viewBox="0 0 300 100" width="300" height="100">
  <rect width="300" height="100" rx="16" fill="#FFFFFF"/>
  <g transform="translate(30, 22)">
    <path d="M 30 10 C 15 10 8 20 8 30 C 8 42 20 45 30 45 L 42 45 L 42 35 L 30 35 C 22 35 18 32 18 28 C 18 22 24 18 30 18 C 38 18 42 22 42 26 L 50 26 C 50 18 40 10 30 10 Z" fill="#E64A19"/>
    <circle cx="30" cy="27" r="5" fill="#43A047"/>
    <text x="60" y="32" font-family="'Plus Jakarta Sans', Arial, sans-serif" font-weight="900" font-size="26" fill="#E64A19" letter-spacing="1">GENUS</text>
    <text x="60" y="48" font-family="'Plus Jakarta Sans', Arial, sans-serif" font-weight="800" font-size="11" fill="#43A047" letter-spacing="3">INNOVATION</text>
  </g>
</svg>
